<svg width="100" height="100" viewBox="0 0 100 100" xmlns="http://www.w3.org/2000/svg">
  <defs>
    <!-- African-inspired symbols and patterns -->
    <pattern id="africa-pattern" x="0" y="0" width="100" height="100" patternUnits="userSpaceOnUse">
      <!-- Background -->
      <rect x="0" y="0" width="100" height="100" fill="#F7F3E3" opacity="0.1"/>
      
      <!-- Adinkra symbol (wisdom) -->
      <path d="M20 20 L30 10 L40 20 L30 30 Z" fill="#E94822" opacity="0.2"/>
      
      <!-- Mud cloth pattern element -->
      <rect x="60" y="10" width="20" height="20" fill="#F2A922" opacity="0.2"/>
      <line x1="60" y1="15" x2="80" y2="15" stroke="#461111" opacity="0.2" stroke-width="2"/>
      <line x1="60" y1="25" x2="80" y2="25" stroke="#461111" opacity="0.2" stroke-width="2"/>
      
      <!-- Zigzag pattern (common in African textiles) -->
      <polyline points="10,60 15,50 20,60 25,50 30,60 35,50 40,60" stroke="#0A7029" stroke-width="2" fill="none" opacity="0.2"/>
      
      <!-- Dotted pattern (inspired by beadwork) -->
      <circle cx="60" cy="60" r="2" fill="#461111" opacity="0.2"/>
      <circle cx="70" cy="60" r="2" fill="#461111" opacity="0.2"/>
      <circle cx="80" cy="60" r="2" fill="#461111" opacity="0.2"/>
      <circle cx="60" cy="70" r="2" fill="#461111" opacity="0.2"/>
      <circle cx="70" cy="70" r="2" fill="#461111" opacity="0.2"/>
      <circle cx="80" cy="70" r="2" fill="#461111" opacity="0.2"/>
      
      <!-- Kente cloth inspired geometric element -->
      <rect x="10" y="80" width="15" height="15" fill="#E94822" opacity="0.2"/>
      <rect x="25" y="80" width="15" height="15" fill="#F2A922" opacity="0.2"/>
      <rect x="40" y="80" width="15" height="15" fill="#0A7029" opacity="0.2"/>
      
      <!-- Abstract baobab tree -->
      <path d="M70 75 C70 85, 65 90, 65 90 L75 90 C75 90, 70 85, 70 75" fill="#461111" opacity="0.2"/>
      <line x1="70" y1="90" x2="70" y2="95" stroke="#461111" stroke-width="2" opacity="0.2"/>
    </pattern>
  </defs>
  
  <!-- Apply the pattern -->
  <rect x="0" y="0" width="100" height="100" fill="url(#africa-pattern)"/>
</svg> 