<svg width="32" height="32" viewBox="0 0 32 32" xmlns="http://www.w3.org/2000/svg">
  <defs>
    <linearGradient id="gradient" x1="0%" y1="0%" x2="100%" y2="100%">
      <stop offset="0%" stop-color="#E94822" />
      <stop offset="100%" stop-color="#F2A922" />
    </linearGradient>
  </defs>
  
  <!-- Background circle -->
  <circle cx="16" cy="16" r="15" fill="url(#gradient)" />
  
  <!-- African continent silhouette (simplified) -->
  <path d="M14 6 L18 7 L20 9 L22 8 L23 10 L21 12 L22 14 L20 16 L21 19 L19 21 L17 22 L16 24 L14 23 L12 25 L10 24 L9 22 L11 20 L10 18 L11 15 L13 14 L12 11 L13 9 L14 6" 
        fill="#0A7029" stroke="#461111" stroke-width="0.5" />
  
  <!-- Sound wave elements (for voice assistant) -->
  <path d="M6 16 Q8 13 6 10" stroke="white" stroke-width="1.5" fill="none" />
  <path d="M4 16 Q7 11 4 6" stroke="white" stroke-width="1.5" fill="none" />
  <path d="M6 16 Q8 19 6 22" stroke="white" stroke-width="1.5" fill="none" />
  <path d="M4 16 Q7 21 4 26" stroke="white" stroke-width="1.5" fill="none" />
</svg> 